<?xml version="1.0" encoding="UTF-8"?>
<!--Generator: Apple Native CoreSVG 232.5-->
<!DOCTYPE svg
PUBLIC "-//W3C//DTD SVG 1.1//EN"
       "http://www.w3.org/Graphics/SVG/1.1/DTD/svg11.dtd">
<svg version="1.1" xmlns="http://www.w3.org/2000/svg" xmlns:xlink="http://www.w3.org/1999/xlink" width="42.4375" height="38.5156">
 <g>
  <rect height="38.5156" opacity="0" width="42.4375" x="0" y="0"/>
  <path d="M5.21875 38.1875L36.8281 38.1875C40.0938 38.1875 42.0625 35.9062 42.0625 33.0156C42.0625 32.0781 41.7969 31.1094 41.2812 30.2188L25.4844 2.59375C24.5 0.859375 22.7656 0 21.0312 0C19.2812 0 17.5625 0.859375 16.5781 2.59375L0.78125 30.2188C0.25 31.125 0 32.0781 0 33.0156C0 35.9062 1.96875 38.1875 5.21875 38.1875ZM5.25 35.4844C3.70312 35.4844 2.78125 34.3125 2.78125 33C2.78125 32.5312 2.90625 32 3.17188 31.5L18.9375 3.90625C19.4062 3.07812 20.2344 2.75 21.0312 2.75C21.8281 2.75 22.6406 3.07812 23.0938 3.90625L38.875 31.5156C39.1406 32.0156 39.2656 32.5312 39.2656 33C39.2656 34.3125 38.3281 35.4844 36.7812 35.4844Z" fill="#ffffff" fill-opacity="0.85"/>
  <path d="M21.0156 24.7031C21.8438 24.7031 22.3438 24.2188 22.3594 23.2969L22.6094 12.5625C22.625 11.6562 21.9375 10.9844 21 10.9844C20.0469 10.9844 19.3906 11.6406 19.4062 12.5469L19.6406 23.2969C19.6562 24.2031 20.1406 24.7031 21.0156 24.7031ZM21.0156 31.0625C22.0781 31.0625 23 30.2188 23 29.1562C23 28.0781 22.0938 27.2344 21.0156 27.2344C19.9375 27.2344 19.0312 28.0938 19.0312 29.1562C19.0312 30.2031 19.9531 31.0625 21.0156 31.0625Z" fill="#ffffff" fill-opacity="0.85"/>
 </g>
</svg>
