<?xml version="1.0" encoding="UTF-8"?>
<!--Generator: Apple Native CoreSVG 232.5-->
<!DOCTYPE svg
PUBLIC "-//W3C//DTD SVG 1.1//EN"
       "http://www.w3.org/Graphics/SVG/1.1/DTD/svg11.dtd">
<svg version="1.1" xmlns="http://www.w3.org/2000/svg" xmlns:xlink="http://www.w3.org/1999/xlink" width="88.2188" height="87.2812">
 <g>
  <rect height="87.2812" opacity="0" width="88.2188" x="0" y="0"/>
  <path d="M23.75 87.2812C25.4688 87.2812 26.6562 86.375 28.6875 84.5625L42.7812 72.1562L70.4062 72.1562C81.7188 72.1562 88.0312 65.6875 88.0312 54.5625L88.0312 22.6875C88.0312 11.5312 81.7188 5.0625 70.4062 5.0625L17.625 5.0625C6.28125 5.0625 0 11.5 0 22.6875L0 54.5625C0 65.75 6.28125 72.1562 17.625 72.1562L19.9688 72.1562L19.9688 82.9062C19.9688 85.5625 21.3438 87.2812 23.75 87.2812ZM25.125 81L25.125 69.25C25.125 67.3438 24.4062 66.625 22.5312 66.625L17.6562 66.625C9.59375 66.625 5.53125 62.3125 5.53125 54.5L5.53125 22.7188C5.53125 14.9062 9.59375 10.5938 17.6562 10.5938L70.375 10.5938C78.3438 10.5938 82.5 14.9062 82.5 22.7188L82.5 54.5C82.5 62.3125 78.3438 66.625 70.375 66.625L42.6562 66.625C40.6875 66.625 39.6562 66.9375 38.2812 68.3438Z" fill="#ffffff" fill-opacity="0.85"/>
  <path d="M20 37.4375L38.4062 37.4375C41.0625 37.4375 42.4375 36.125 42.4375 33.4375L42.4375 24.8125C42.4375 22.125 41.0625 20.875 38.4062 20.875L20 20.875C17.3438 20.875 15.9688 22.125 15.9688 24.8125L15.9688 33.4375C15.9688 36.125 17.3438 37.4375 20 37.4375ZM25 56.2812L40.875 56.2812C43.5312 56.2812 44.875 55 44.875 52.2812L44.875 46.25C44.875 43.5625 43.5312 42.2812 40.875 42.2812L25 42.2812C22.3125 42.2812 20.9688 43.5625 20.9688 46.25L20.9688 52.2812C20.9688 55 22.3125 56.2812 25 56.2812ZM53.9062 53.7812L67.125 53.7812C69.7812 53.7812 71.125 52.5 71.125 49.8125L71.125 27.6562C71.125 24.9688 69.7812 23.6875 67.125 23.6875L53.9062 23.6875C51.25 23.6875 49.9062 24.9688 49.9062 27.6562L49.9062 49.8125C49.9062 52.5 51.25 53.7812 53.9062 53.7812Z" fill="#ffffff" fill-opacity="0.85"/>
 </g>
</svg>
