<?xml version="1.0" encoding="UTF-8"?>
<!--Generator: Apple Native CoreSVG 232.5-->
<!DOCTYPE svg
PUBLIC "-//W3C//DTD SVG 1.1//EN"
       "http://www.w3.org/Graphics/SVG/1.1/DTD/svg11.dtd">
<svg version="1.1" xmlns="http://www.w3.org/2000/svg" xmlns:xlink="http://www.w3.org/1999/xlink" width="41.0781" height="40.7344">
 <g>
  <rect height="40.7344" opacity="0" width="41.0781" x="0" y="0"/>
  <path d="M20.3438 40.7031C31.4844 40.7031 40.7031 31.4844 40.7031 20.3594C40.7031 9.21875 31.4688 0 20.3281 0C9.20312 0 0 9.21875 0 20.3594C0 31.4844 9.21875 40.7031 20.3438 40.7031ZM20.3438 37.7969C10.6875 37.7969 2.92188 30.0156 2.92188 20.3594C2.92188 10.6875 10.6719 2.92188 20.3281 2.92188C30 2.92188 37.7812 10.6875 37.7812 20.3594C37.7812 30.0156 30.0156 37.7969 20.3438 37.7969Z" fill="#ffffff" fill-opacity="0.85"/>
  <path d="M16.7656 31.5469L25 31.5469C25.7188 31.5469 26.2812 31.0156 26.2812 30.3125C26.2812 29.625 25.7188 29.0781 25 29.0781L22.25 29.0781L22.25 18.1562C22.25 17.25 21.7812 16.625 20.9062 16.625L17.0625 16.625C16.3438 16.625 15.7812 17.1562 15.7812 17.8438C15.7812 18.5469 16.3438 19.0781 17.0625 19.0781L19.5156 19.0781L19.5156 29.0781L16.7656 29.0781C16.0469 29.0781 15.5 29.625 15.5 30.3125C15.5 31.0156 16.0469 31.5469 16.7656 31.5469ZM20.2031 13.0625C21.5312 13.0625 22.5625 12 22.5625 10.7031C22.5625 9.375 21.5312 8.3125 20.2031 8.3125C18.8906 8.3125 17.8438 9.375 17.8438 10.7031C17.8438 12 18.8906 13.0625 20.2031 13.0625Z" fill="#ffffff" fill-opacity="0.85"/>
 </g>
</svg>
