<?xml version="1.0" encoding="UTF-8"?>
<!--Generator: Apple Native CoreSVG 232.5-->
<!DOCTYPE svg
PUBLIC "-//W3C//DTD SVG 1.1//EN"
       "http://www.w3.org/Graphics/SVG/1.1/DTD/svg11.dtd">
<svg version="1.1" xmlns="http://www.w3.org/2000/svg" xmlns:xlink="http://www.w3.org/1999/xlink" width="98.0625" height="101.094">
 <g>
  <rect height="101.094" opacity="0" width="98.0625" x="0" y="0"/>
  <path d="M74.417 11.125L23.4889 11.125C23.6892 8.29366 25.5274 6.65625 28.5312 6.65625L69.3438 6.65625C72.3476 6.65625 74.2136 8.29366 74.417 11.125Z" fill="#ffffff" fill-opacity="0.85"/>
  <path d="M82.4822 22.062C81.3619 21.8908 80.1752 21.8125 78.9375 21.8125L18.9375 21.8125C17.6994 21.8125 16.5128 21.8901 15.3931 22.06C15.8181 18.7372 18.1076 16.875 21.7812 16.875L76.0938 16.875C79.7681 16.875 82.0578 18.7379 82.4822 22.062Z" fill="#ffffff" fill-opacity="0.85"/>
  <path d="M18.9375 94.3438L78.9375 94.3438C87 94.3438 91.0938 90.25 91.0938 82.2812L91.0938 40.625C91.0938 32.6562 87 28.5938 78.9375 28.5938L18.9375 28.5938C10.8438 28.5938 6.78125 32.625 6.78125 40.625L6.78125 82.2812C6.78125 90.2812 10.8438 94.3438 18.9375 94.3438ZM19.0312 88.8125C14.6875 88.8125 12.3125 86.5 12.3125 82L12.3125 40.9062C12.3125 36.4375 14.6875 34.125 19.0312 34.125L78.8438 34.125C83.125 34.125 85.5625 36.4375 85.5625 40.9062L85.5625 82C85.5625 86.5 83.125 88.8125 78.8438 88.8125Z" fill="#ffffff" fill-opacity="0.85"/>
  <path d="M50.9062 78.3125C51.5938 78.3125 52.0312 77.8125 52.1875 77.1562C54.3438 64.375 55.4375 62.5625 68.4375 60.8438C69.1562 60.75 69.625 60.25 69.625 59.5312C69.625 58.875 69.1562 58.3438 68.4375 58.25C55.4688 56.5 54.0625 54.5938 52.1875 42C52.0625 41.2812 51.5938 40.8125 50.9062 40.8125C50.1875 40.8125 49.6875 41.25 49.5312 41.9688C47.2812 54.7812 46.3125 56.5 33.3125 58.25C32.5938 58.3438 32.0938 58.875 32.0938 59.5312C32.0938 60.25 32.5938 60.75 33.3125 60.8438C46.3438 61.8125 47.7812 64.375 49.5312 77.125C49.6562 77.8125 50.125 78.3125 50.9062 78.3125ZM34.875 84.6875C35.3438 84.6875 35.7188 84.4062 35.8125 83.9375C36.8438 78.0625 36.5312 77.5312 43.1562 76.5938C43.625 76.5312 43.9688 76.125 43.9688 75.6562C43.9688 75.1875 43.625 74.7812 43.1562 74.7188C36.5312 73.7188 36.8438 73.1875 35.8125 67.4688C35.7188 66.9375 35.375 66.5938 34.875 66.5938C34.375 66.5938 34.0312 66.9062 33.9062 67.4688C32.875 73.1875 33.25 73.7188 26.625 74.7188C26.0938 74.7812 25.8125 75.1875 25.8125 75.6562C25.8125 76.1875 26.0938 76.5312 26.6875 76.5938C33.25 77.5312 32.875 78.0625 33.9062 83.8438C34.0312 84.375 34.3438 84.6875 34.875 84.6875Z" fill="#ffffff" fill-opacity="0.85"/>
 </g>
</svg>
