<?xml version="1.0" encoding="UTF-8"?>
<!--Generator: Apple Native CoreSVG 232.5-->
<!DOCTYPE svg
PUBLIC "-//W3C//DTD SVG 1.1//EN"
       "http://www.w3.org/Graphics/SVG/1.1/DTD/svg11.dtd">
<svg version="1.1" xmlns="http://www.w3.org/2000/svg" xmlns:xlink="http://www.w3.org/1999/xlink" width="39.4219" height="39.4219">
 <g>
  <rect height="39.4219" opacity="0" width="39.4219" x="0" y="0"/>
  <path d="M0 15.8125C0 24.5156 7.09375 31.6094 15.8125 31.6094C19.3281 31.6094 22.5625 30.4531 25.1875 28.5L35.4844 38.8125C35.875 39.2188 36.4219 39.4219 36.9844 39.4219C38.2188 39.4219 39.0469 38.4844 39.0469 37.3125C39.0469 36.7344 38.8438 36.2344 38.4688 35.8438L28.2188 25.5469C30.3438 22.875 31.625 19.4844 31.625 15.8125C31.625 7.09375 24.5312 0 15.8125 0C7.09375 0 0 7.09375 0 15.8125ZM2.92188 15.8125C2.92188 8.70312 8.70312 2.92188 15.8125 2.92188C22.9219 2.92188 28.6875 8.70312 28.6875 15.8125C28.6875 22.9062 22.9219 28.6875 15.8125 28.6875C8.70312 28.6875 2.92188 22.9062 2.92188 15.8125Z" fill="#89b73f" fill-opacity="1"/>
  <path d="M9.39062 14.4062L22.3438 14.4062C23.0156 14.4062 23.5469 13.8594 23.5469 13.1719C23.5469 12.5 23.0156 11.9688 22.3438 11.9688L9.39062 11.9688C8.6875 11.9688 8.17188 12.5 8.17188 13.1719C8.17188 13.8594 8.6875 14.4062 9.39062 14.4062ZM9.39062 19.625L18.7656 19.625C19.4375 19.625 20 19.0938 20 18.4062C20 17.7344 19.4375 17.1875 18.7656 17.1875L9.39062 17.1875C8.6875 17.1875 8.17188 17.7344 8.17188 18.4062C8.17188 19.0938 8.6875 19.625 9.39062 19.625Z" fill="#99999a" fill-opacity="1"/>
 </g>
</svg>
