<?xml version="1.0" encoding="UTF-8"?>
<!--Generator: Apple Native CoreSVG 232.5-->
<!DOCTYPE svg
PUBLIC "-//W3C//DTD SVG 1.1//EN"
       "http://www.w3.org/Graphics/SVG/1.1/DTD/svg11.dtd">
<svg version="1.1" xmlns="http://www.w3.org/2000/svg" xmlns:xlink="http://www.w3.org/1999/xlink" width="94.875" height="73.5312">
 <g>
  <rect height="73.5312" opacity="0" width="94.875" x="0" y="0"/>
  <path d="M12.1562 73.5312L82.5 73.5312C90.5938 73.5312 94.6875 69.4688 94.6875 61.5L94.6875 12.125C94.6875 4.15625 90.5938 0.09375 82.5 0.09375L12.1562 0.09375C4.09375 0.09375 0 4.125 0 12.125L0 61.5C0 69.5 4.09375 73.5312 12.1562 73.5312ZM12.2812 68C7.90625 68 5.53125 65.6875 5.53125 61.2188L5.53125 12.4062C5.53125 7.9375 7.90625 5.625 12.2812 5.625L82.4062 5.625C86.6875 5.625 89.125 7.9375 89.125 12.4062L89.125 61.2188C89.125 65.6875 86.6875 68 82.4062 68ZM30.25 69.0938L35.6562 69.0938L35.6562 4.4375L30.25 4.4375ZM22.5312 20.625C23.625 20.625 24.5625 19.6562 24.5625 18.625C24.5625 17.5312 23.625 16.625 22.5312 16.625L13.3438 16.625C12.25 16.625 11.3125 17.5312 11.3125 18.625C11.3125 19.6562 12.25 20.625 13.3438 20.625ZM22.5312 31.1875C23.625 31.1875 24.5625 30.25 24.5625 29.1875C24.5625 28.125 23.625 27.2188 22.5312 27.2188L13.3438 27.2188C12.25 27.2188 11.3125 28.125 11.3125 29.1875C11.3125 30.25 12.25 31.1875 13.3438 31.1875ZM22.5312 41.75C23.625 41.75 24.5625 40.8438 24.5625 39.7812C24.5625 38.7188 23.625 37.8125 22.5312 37.8125L13.3438 37.8125C12.25 37.8125 11.3125 38.7188 11.3125 39.7812C11.3125 40.8438 12.25 41.75 13.3438 41.75Z" fill="#ffffff" fill-opacity="0.85"/>
 </g>
</svg>
