<?xml version="1.0" encoding="UTF-8"?>
<!--Generator: Apple Native CoreSVG 232.5-->
<!DOCTYPE svg
PUBLIC "-//W3C//DTD SVG 1.1//EN"
       "http://www.w3.org/Graphics/SVG/1.1/DTD/svg11.dtd">
<svg version="1.1" xmlns="http://www.w3.org/2000/svg" xmlns:xlink="http://www.w3.org/1999/xlink" width="37.1094" height="36.7656">
 <g>
  <rect height="36.7656" opacity="0" width="37.1094" x="0" y="0"/>
  <path d="M6.07812 36.7656L30.6406 36.7656C34.6875 36.7656 36.7344 34.7344 36.7344 30.75L36.7344 6.0625C36.7344 2.07812 34.6875 0.046875 30.6406 0.046875L6.07812 0.046875C2.04688 0.046875 0 2.0625 0 6.0625L0 30.75C0 34.75 2.04688 36.7656 6.07812 36.7656ZM6.14062 34C3.95312 34 2.76562 32.8438 2.76562 30.6094L2.76562 6.20312C2.76562 3.96875 3.95312 2.8125 6.14062 2.8125L30.5938 2.8125C32.7344 2.8125 33.9688 3.96875 33.9688 6.20312L33.9688 30.6094C33.9688 32.8438 32.7344 34 30.5938 34Z" fill="#ffffff" fill-opacity="0.85"/>
  <path d="M18.3594 22C19.2031 22 19.6875 21.5 19.7031 20.5781L19.9688 9.84375C19.9844 8.9375 19.2812 8.26562 18.3438 8.26562C17.3906 8.26562 16.7344 8.92188 16.75 9.82812L16.9844 20.5781C17 21.4844 17.5 22 18.3594 22ZM18.3594 28.3594C19.4375 28.3594 20.3438 27.5 20.3438 26.4375C20.3438 25.3594 19.4531 24.5156 18.3594 24.5156C17.2812 24.5156 16.375 25.375 16.375 26.4375C16.375 27.4844 17.2969 28.3594 18.3594 28.3594Z" fill="#ffffff" fill-opacity="0.85"/>
 </g>
</svg>
